<?xml version='1.0' encoding='utf-8'?>
<svg xmlns="http://www.w3.org/2000/svg" width="64" height="99" viewBox="0 0 64 99" fill="none">
<path d="M0 33.3291V72.2538C0 74.3755 0.842854 76.4104 2.34315 77.9107C3.84344 79.411 5.87827 80.2538 8 80.2538H56C58.1217 80.2538 60.1566 79.411 61.6569 77.9107C61.9735 77.594 62.2608 77.2536 62.5171 76.8936C25.039 67.8731 7.9324 49.7173 0 33.3291Z" fill="#D1E3FA" />
<path d="M56 80.2535H8C5.87827 80.2535 3.84344 79.4107 2.34315 77.9104C0.842854 76.4101 0 74.3753 0 72.2535V8.25352C0 6.13179 0.842854 4.09696 2.34315 2.59667C3.84344 1.09637 5.87827 0.25352 8 0.25352H36C36.0358 0.248827 36.0722 0.248827 36.108 0.25352H36.132C36.1698 0.265326 36.2086 0.273366 36.248 0.27752C36.6 0.30152 36.948 0.369519 37.284 0.481519H37.452C37.5258 0.533195 37.5954 0.590713 37.66 0.653519C38.0957 0.847291 38.4928 1.11833 38.832 1.45352L62.832 25.4535C63.1673 25.7927 63.4383 26.1897 63.632 26.6255C63.6668 26.712 63.6975 26.8001 63.724 26.8895L63.764 27.0015C63.876 27.3335 63.94 27.6815 63.96 28.0335C63.9635 28.0734 63.9729 28.1125 63.988 28.1495V28.1735C63.9944 28.1998 63.9984 28.2265 64 28.2535V72.2535C64 74.3753 63.1571 76.4101 61.6569 77.9104C60.1566 79.4107 58.1217 80.2535 56 80.2535Z" fill="#19335B" />
<path d="M36.7031 9.19531V29.1953H56.7031L36.7031 9.19531Z" fill="#2F4971" />
<g opacity="0.05" filter="url(#filter0_f_1467_4863)">
<ellipse cx="31" cy="91.5" rx="18" ry="3.5" fill="black" />
</g>
<text x="8" y="66" font-size="22" font-family="Arial, Helvetica, sans-serif" font-weight="700" fill="#5cb1ff">CSS</text><defs>
<filter id="filter0_f_1467_4863" x="9" y="84" width="44" height="15" filterUnits="userSpaceOnUse" color-interpolation-filters="sRGB">
<feFlood flood-opacity="0" result="BackgroundImageFix" />
<feBlend mode="normal" in="SourceGraphic" in2="BackgroundImageFix" result="shape" />
<feGaussianBlur stdDeviation="2" result="effect1_foregroundBlur_1467_4863" />
</filter>
</defs>
</svg>