<svg xmlns="http://www.w3.org/2000/svg" width="56" height="74" viewBox="0 0 56 74" fill="none" aria-hidden="true">
  <!-- documento -->
  <rect x="0" y="0" width="56" height="70" rx="6" fill="#D1E3FA"></rect>
  <!-- header -->
  <rect x="0" y="0" width="56" height="12" rx="6" fill="#5CB1FF"></rect>

  <!-- contenuto: preview pagina + freccia preload + fulmine -->
  <g transform="translate(8,20)">
    <!-- riquadro pagina -->
    <rect x="0" y="8" width="40" height="28" rx="4" fill="#FFFFFF" opacity="0.06"></rect>
    <rect x="0.8" y="8.8" width="38.4" height="26.4" rx="3.2" stroke="#2F4971" stroke-opacity="0.25" fill="none"></rect>

    <!-- righe/links -->
    <rect x="6" y="14" width="18" height="3" rx="1.5" fill="#5CB1FF" opacity="0.9"></rect>
    <rect x="6" y="20" width="14" height="3" rx="1.5" fill="#5CB1FF" opacity="0.7"></rect>
    <rect x="6" y="26" width="16" height="3" rx="1.5" fill="#5CB1FF" opacity="0.7"></rect>

    <!-- freccia “preload before open” -->
    <path d="M26 22 H34" stroke="#5CB1FF" stroke-width="2.4" stroke-linecap="round"></path>
    <path d="M34 18 L40 22 L34 26 Z" fill="#5CB1FF"></path>

    <!-- fulmine (instant) in alto a destra del riquadro -->
    <path d="M31 2 L24 13 H30 L27 24 L38 12 H32 L35 2 Z" fill="#5CB1FF" opacity="0.95"></path>
  </g>
</svg>
